<?xml version="1.0" standalone="no"?>
<!DOCTYPE svg PUBLIC "-//W3C//DTD SVG 20010904//EN"
 "http://www.w3.org/TR/2001/REC-SVG-20010904/DTD/svg10.dtd">
<svg version="1.0" xmlns="http://www.w3.org/2000/svg"
 width="4500.000000pt" height="3500.000000pt" viewBox="0 0 4500.000000 3500.000000"
 preserveAspectRatio="xMidYMid meet">
<metadata>
Created by potrace 1.16, written by Peter Selinger 2001-2019
</metadata>
<g transform="translate(0.000000,3500.000000) scale(0.100000,-0.100000)"
fill="#000000" stroke="none">
<path d="M6500 30710 c-267 -37 -537 -134 -1070 -385 -701 -329 -1726 -902
-2005 -1119 -441 -345 -534 -799 -298 -1456 116 -323 283 -588 472 -746 146
-122 295 -197 486 -242 98 -23 130 -26 290 -25 193 0 226 5 894 124 646 115
1320 257 1616 340 403 113 782 327 1053 593 l112 110 71 -24 c138 -46 288
-157 381 -279 45 -60 126 -212 143 -268 6 -22 6 -22 -36 -8 -105 38 -244 28
-354 -24 -53 -25 -622 -429 -683 -485 -32 -28 -60 -85 -68 -135 -6 -37 -27
-61 -223 -253 -704 -693 -1316 -1150 -1946 -1454 -175 -84 -403 -176 -536
-215 l-75 -22 -52 38 c-179 128 -413 107 -562 -51 -199 -210 -135 -547 127
-676 65 -32 73 -33 183 -33 110 0 118 1 183 33 86 42 157 113 198 199 18 37
33 69 34 71 1 1 71 22 156 46 950 274 2170 883 2884 1441 52 41 95 73 95 72 0
-1 -7 -24 -15 -52 -11 -34 -15 -86 -14 -163 l1 -113 -1483 -1075 c-816 -591
-1497 -1087 -1512 -1102 -43 -41 -93 -151 -107 -234 -28 -163 5 -390 84 -585
148 -361 462 -676 781 -782 156 -51 290 -50 394 4 25 13 712 507 1526 1097
l1480 1073 90 -34 c80 -31 101 -35 190 -35 120 -1 146 9 280 107 l90 66 34
-40 c37 -44 78 -69 115 -69 19 0 36 -17 79 -79 66 -93 108 -130 202 -176 97
-48 190 -63 299 -47 168 24 266 72 530 256 601 420 1209 750 1736 941 392 143
789 225 1092 225 114 0 118 -1 123 -22 2 -13 45 -309 95 -658 50 -349 132
-907 181 -1240 122 -818 116 -775 97 -797 -9 -10 -30 -47 -47 -83 -49 -104
-49 -158 -3 -415 22 -122 38 -233 35 -248 -12 -60 70 -180 171 -253 29 -21 30
-25 93 -390 165 -959 508 -2929 539 -3097 239 -1309 858 -2225 1879 -2781 199
-108 468 -224 700 -300 6 -2 30 -55 54 -117 24 -63 70 -174 102 -248 33 -74
59 -141 59 -148 0 -11 -41 -13 -217 -11 l-218 3 -7 55 c-15 123 -75 223 -178
301 -145 109 -359 184 -645 225 -146 22 -522 25 -665 6 -433 -57 -706 -189
-811 -392 -20 -38 -24 -63 -27 -166 l-4 -121 -35 -12 c-63 -23 -210 -130 -273
-198 -77 -84 -136 -201 -150 -298 -14 -94 -9 -1903 5 -1913 6 -4 21 -32 35
-62 29 -62 86 -140 139 -188 49 -45 165 -121 229 -151 l52 -24 0 -1294 0
-1294 -47 -20 c-171 -73 -332 -239 -392 -403 l-26 -71 0 -950 0 -950 36 -70
c80 -155 199 -271 355 -349 l74 -38 0 -799 0 -799 7350 0 7350 0 0 798 0 797
83 43 c158 83 262 186 334 330 20 39 40 72 45 72 5 0 7 424 6 973 l-3 972 -28
65 c-60 142 -197 283 -353 362 l-84 43 0 1287 0 1288 63 31 c166 84 284 193
343 317 22 45 45 81 52 81 9 1 12 200 12 959 0 852 -2 964 -16 1013 -51 173
-175 312 -368 415 l-87 46 3 107 c3 102 2 109 -29 172 -58 116 -176 209 -359
282 -391 156 -1035 167 -1467 26 -185 -61 -348 -168 -415 -274 -31 -49 -62
-147 -62 -197 l0 -38 -220 0 c-180 0 -220 2 -220 14 0 7 12 40 27 72 14 33 61
144 104 248 l77 189 121 43 c594 209 1119 547 1504 969 341 374 607 836 782
1361 80 239 147 525 219 934 69 389 406 2326 505 2898 54 316 61 345 82 360
91 63 179 181 181 243 0 13 16 117 34 231 19 113 34 238 34 277 0 86 -24 162
-74 231 l-35 48 19 119 c31 195 193 1297 284 1933 47 327 88 606 91 619 l6 24
172 -6 c249 -9 458 -44 752 -128 593 -170 1289 -526 2005 -1025 281 -195 376
-241 546 -266 109 -16 202 -1 299 47 94 46 136 83 202 176 43 62 60 79 79 79
37 0 78 25 115 69 l34 40 90 -66 c134 -98 160 -108 280 -107 89 0 110 4 190
35 l90 34 1480 -1073 c814 -590 1501 -1084 1526 -1097 209 -108 544 0 826 268
196 186 350 449 413 709 27 108 37 290 20 386 -14 83 -64 193 -107 234 -15 15
-123 96 -239 180 -116 84 -783 567 -1482 1073 l-1271 920 -1 110 c0 102 -6
145 -24 203 -6 19 7 12 67 -36 701 -557 1933 -1175 2907 -1458 85 -25 155 -46
155 -47 69 -151 126 -217 232 -269 65 -32 73 -33 183 -33 110 0 118 1 183 33
262 129 326 466 127 676 -149 158 -383 179 -562 51 l-52 -38 -75 22 c-233 68
-621 244 -896 406 -519 305 -1009 695 -1587 1264 -140 137 -218 221 -218 234
0 42 -25 100 -59 137 -50 54 -622 466 -696 501 -110 52 -249 62 -354 24 -42
-14 -42 -14 -36 8 17 56 98 208 143 268 93 122 243 233 381 279 l71 25 108
-107 c167 -166 357 -300 589 -416 114 -58 341 -145 468 -181 296 -83 975 -226
1615 -340 675 -120 704 -124 885 -125 187 -1 270 10 407 55 381 124 667 446
851 959 236 657 143 1111 -298 1456 -282 219 -1315 796 -2025 1129 -426 200
-704 307 -920 353 -115 24 -144 26 -360 26 -206 0 -247 -2 -333 -21 -300 -68
-540 -197 -748 -403 -218 -216 -377 -484 -493 -831 -109 -330 -132 -644 -66
-919 14 -56 17 -86 10 -88 -6 -2 -56 -26 -112 -53 -292 -143 -545 -397 -677
-680 -37 -79 -300 -717 -406 -986 -42 -106 -52 -124 -81 -139 -33 -18 -34 -18
-61 2 -122 90 -846 592 -993 690 -756 498 -1389 761 -2023 839 -161 20 -461
19 -619 -1 -1012 -131 -1738 -904 -2073 -2209 -64 -250 -109 -486 -155 -811
-23 -159 -44 -294 -48 -300 -4 -6 -38 -47 -76 -90 -429 -491 -737 -1205 -926
-2145 -11 -55 -12 -57 -48 -64 -81 -15 -168 -70 -196 -124 -8 -14 -31 -137
-52 -272 -33 -214 -36 -252 -26 -286 17 -56 46 -89 108 -125 l54 -30 -6 -41
c-33 -224 -175 -1053 -309 -1812 -90 -511 -194 -1101 -230 -1310 -130 -753
-296 -1624 -363 -1905 l-17 -75 -75 -42 c-119 -68 -290 -140 -496 -209 -106
-35 -194 -64 -198 -64 -3 0 -7 289 -8 643 l-3 642 -30 54 c-69 125 -273 232
-580 304 -929 219 -2567 160 -3139 -113 -146 -69 -247 -162 -263 -243 -6 -27
-7 -26 -35 32 -88 183 -403 313 -948 390 -803 114 -1849 82 -2474 -75 -298
-75 -495 -185 -552 -309 l-24 -50 0 -632 c0 -347 -4 -634 -9 -637 -11 -7 -225
54 -348 100 -107 39 -280 123 -373 179 -43 26 -59 42 -62 63 -3 15 -44 216
-91 447 -77 379 -148 760 -281 1515 -25 140 -111 622 -190 1070 -178 1004
-242 1369 -306 1766 -46 280 -49 310 -34 319 9 6 36 22 60 37 49 30 81 75 90
127 8 40 -62 504 -81 541 -30 57 -112 110 -197 125 -36 7 -37 9 -48 64 -195
970 -521 1709 -970 2196 l-37 40 -33 235 c-122 887 -315 1501 -631 2008 -383
616 -943 990 -1607 1076 -158 20 -458 21 -619 1 -634 -79 -1261 -338 -2023
-839 -146 -96 -859 -592 -993 -690 -27 -20 -29 -20 -61 -2 -29 15 -39 33 -81
139 -106 269 -369 907 -406 986 -97 208 -295 440 -485 569 -74 50 -255 147
-304 164 -7 2 -4 32 10 88 66 275 43 589 -66 919 -116 347 -275 615 -493 831
-206 205 -449 336 -743 401 -73 16 -137 22 -298 24 -113 2 -234 0 -270 -5z
m489 -235 c508 -97 896 -482 1100 -1093 100 -299 117 -573 50 -828 -11 -43
-22 -81 -25 -85 -4 -7 -102 17 -113 27 -2 2 6 38 17 81 77 286 42 584 -110
945 -43 103 -159 313 -188 342 -6 6 0 -17 12 -50 19 -50 22 -78 22 -189 0
-113 -4 -140 -27 -210 -44 -134 -113 -227 -202 -272 -44 -23 -68 -27 -200 -34
-206 -10 -253 -23 -379 -104 -63 -40 -148 -70 -243 -86 -92 -16 -149 1 -283
88 -105 67 -198 112 -234 113 -15 0 -11 -9 22 -44 47 -51 68 -86 52 -86 -6 0
-66 16 -133 35 -71 20 -144 35 -175 35 -184 0 -299 -188 -214 -351 40 -77 90
-108 256 -154 75 -21 136 -42 136 -46 0 -4 -26 -17 -57 -30 -78 -29 -186 -29
-265 1 -168 63 -275 271 -224 435 8 27 13 51 10 54 -8 9 -43 -39 -71 -98 -24
-50 -26 -69 -32 -230 -6 -154 -10 -181 -29 -218 -34 -65 -85 -98 -262 -168
-52 -21 -142 -68 -200 -105 -149 -96 -198 -118 -306 -140 -142 -29 -225 -27
-299 9 -112 54 -167 136 -234 349 -71 226 -93 384 -72 522 19 123 45 163 198
307 263 247 250 234 220 223 -56 -20 -426 -211 -528 -273 -301 -182 -496 -379
-595 -602 l-26 -59 76 71 c84 81 188 137 284 155 54 10 64 9 106 -11 112 -55
169 -233 192 -601 6 -103 5 -106 -23 -160 -54 -102 -163 -161 -259 -140 -75
17 -125 48 -205 129 -56 57 -87 99 -118 162 -36 71 -42 78 -35 44 11 -65 62
-231 101 -329 201 -512 503 -742 948 -723 266 11 1710 284 2291 432 360 92
708 273 942 489 67 63 57 61 156 35 l39 -10 -44 -46 c-76 -78 -220 -194 -329
-266 -127 -82 -345 -191 -495 -245 -242 -88 -932 -240 -1725 -382 -717 -128
-689 -124 -885 -124 -157 0 -191 3 -264 22 -176 48 -302 124 -434 261 -133
138 -218 278 -311 513 -121 307 -164 592 -122 799 34 163 145 326 313 460 246
196 1284 774 1963 1095 662 312 923 390 1261 378 70 -2 163 -11 208 -19z
m31422 14 c272 -27 517 -113 1069 -373 679 -321 1717 -899 1963 -1095 167
-133 280 -299 313 -460 19 -94 19 -271 -1 -382 -48 -275 -193 -631 -335 -820
-62 -83 -193 -209 -268 -256 -73 -47 -186 -95 -282 -119 -60 -15 -110 -19
-250 -18 -189 0 -173 -2 -880 124 -793 142 -1483 294 -1725 382 -150 54 -368
163 -495 245 -109 72 -253 188 -329 266 l-44 46 39 10 c99 26 89 28 156 -35
206 -191 519 -363 828 -458 392 -119 2105 -450 2400 -463 450 -20 751 209 953
723 39 98 90 264 101 329 7 34 1 27 -35 -44 -31 -63 -62 -105 -118 -162 -80
-81 -130 -112 -205 -129 -96 -21 -205 38 -259 140 -28 54 -29 57 -23 160 23
368 80 546 192 601 42 20 52 21 106 11 96 -18 200 -74 284 -155 l76 -71 -26
59 c-128 288 -379 503 -886 759 -280 142 -284 143 -170 39 176 -161 296 -287
318 -333 45 -96 52 -274 16 -444 -23 -109 -91 -318 -125 -383 -66 -126 -169
-193 -295 -193 -94 0 -250 33 -316 66 -29 15 -90 51 -136 80 -98 64 -163 98
-250 130 -138 53 -201 95 -234 157 -19 37 -23 64 -29 218 -6 161 -8 180 -32
230 -28 59 -63 107 -71 98 -3 -3 2 -27 10 -54 51 -164 -56 -372 -224 -435 -79
-30 -187 -30 -264 -1 -32 13 -58 26 -58 30 0 4 61 25 136 46 166 46 216 77
256 154 65 125 9 284 -119 338 -55 22 -139 16 -270 -22 -67 -19 -127 -35 -133
-35 -16 0 5 35 52 86 33 35 37 44 22 44 -35 -1 -128 -45 -224 -107 -131 -85
-180 -106 -254 -105 -176 0 -285 138 -255 324 21 131 91 232 228 328 34 24 61
44 61 46 0 1 -37 -10 -82 -25 -178 -60 -338 -160 -508 -317 -149 -137 -217
-165 -305 -125 -174 78 -288 439 -211 664 12 37 19 64 15 60 -28 -28 -145
-241 -187 -341 -152 -361 -187 -659 -110 -945 11 -43 19 -79 17 -81 -11 -10
-109 -34 -113 -27 -12 18 -47 172 -57 249 -15 114 -5 319 21 447 12 54 39 152
61 217 258 772 808 1178 1500 1107z m-31649 -1814 c436 -124 949 -270 1139
-324 191 -55 378 -113 417 -130 260 -114 470 -307 600 -551 42 -78 412 -972
412 -994 0 -2 -17 0 -37 5 -21 5 -61 9 -88 9 l-51 0 -129 318 c-248 611 -277
668 -407 807 -112 120 -248 215 -388 269 -36 14 -542 161 -1125 326 -583 165
-1090 309 -1127 320 -72 22 -108 54 -108 97 0 31 42 73 74 73 14 0 382 -101
818 -225z m32343 200 c54 -53 19 -114 -83 -145 -37 -11 -543 -155 -1124 -320
-581 -165 -1087 -311 -1125 -325 -138 -52 -277 -148 -391 -270 -130 -139 -159
-196 -407 -807 l-129 -318 -51 0 c-27 0 -67 -4 -87 -9 -21 -5 -38 -7 -38 -4 0
2 56 143 124 311 278 687 299 730 417 876 154 191 367 333 609 406 324 98
2200 628 2228 629 23 1 41 -7 57 -24z m-31677 -727 c43 -12 79 -23 81 -24 6
-5 -69 -67 -152 -127 -374 -269 -969 -463 -1567 -511 l-65 -5 35 16 c19 8 175
64 345 123 378 131 551 196 715 267 153 66 361 174 455 236 39 25 72 46 73 46
2 1 38 -9 80 -21z m30328 -44 c278 -168 502 -263 1139 -484 171 -59 326 -115
345 -123 l35 -16 -65 5 c-598 48 -1193 242 -1567 511 -84 60 -158 122 -152
127 4 2 137 43 150 45 3 1 55 -29 115 -65z m-24551 -194 c667 -61 1198 -410
1569 -1031 256 -426 433 -970 541 -1654 13 -88 25 -166 25 -173 0 -7 -19 1
-44 20 l-44 33 -16 110 c-47 306 -134 676 -220 933 -254 755 -621 1233 -1151
1499 -721 363 -1734 197 -2837 -464 -184 -111 -474 -315 -1158 -815 -364 -266
-406 -294 -411 -275 -3 12 -3 30 -1 39 4 18 228 180 842 610 541 379 734 503
1033 667 683 375 1338 550 1872 501z m19095 -15 c578 -81 1181 -336 1885 -799
170 -113 629 -432 1103 -768 l252 -180 0 -40 c0 -31 -3 -38 -12 -31 -47 37
-855 625 -1091 793 -403 289 -735 484 -1082 636 -986 431 -1792 440 -2420 27
-547 -360 -922 -1040 -1119 -2033 -19 -96 -42 -224 -52 -285 l-16 -110 -44
-33 c-25 -19 -44 -27 -44 -20 0 7 12 85 25 173 203 1291 670 2121 1400 2485
218 109 443 174 690 200 120 12 383 5 525 -15z m-19055 -236 c605 -75 1089
-435 1422 -1059 171 -319 310 -748 398 -1223 14 -76 25 -144 25 -151 0 -8 -46
10 -123 48 -67 34 -161 75 -210 91 -85 29 -87 31 -92 65 -95 601 -341 1155
-667 1496 -325 339 -665 429 -1214 319 -295 -59 -704 -219 -994 -387 -210
-122 -211 -122 -45 2 139 104 272 192 400 264 55 31 96 56 92 56 -17 0 -198
-71 -292 -115 -112 -52 -476 -242 -675 -353 -336 -186 -465 -271 -1111 -727
-253 -180 -467 -329 -474 -332 -15 -5 -100 118 -149 214 l-26 52 358 249
c1109 774 1350 930 1732 1121 616 308 1157 430 1645 370z m18885 11 c400 -27
808 -150 1270 -381 380 -191 609 -339 1732 -1121 l358 -249 -26 -52 c-49 -96
-134 -219 -149 -214 -7 3 -221 152 -474 332 -646 456 -775 541 -1111 727 -199
111 -563 301 -675 353 -94 44 -275 115 -292 115 -4 0 37 -25 92 -56 128 -72
261 -160 400 -264 166 -124 165 -124 -45 -2 -290 168 -699 328 -994 387 -370
74 -628 57 -862 -55 -128 -62 -235 -142 -352 -264 -326 -341 -572 -895 -667
-1496 -5 -34 -7 -36 -92 -65 -49 -16 -143 -57 -210 -91 -96 -48 -123 -58 -123
-45 0 9 12 77 26 151 155 815 414 1391 804 1780 302 303 679 476 1108 509 59
4 114 9 122 9 8 1 80 -3 160 -8z m-28153 -306 c155 -69 348 -93 608 -75 340
24 314 23 277 6 -63 -29 -257 -73 -372 -85 -241 -23 -451 27 -609 146 -51 38
-131 122 -131 138 0 3 38 -19 85 -50 46 -30 110 -66 142 -80z m37238 81 c-196
-238 -585 -303 -1022 -170 -47 15 -83 29 -80 32 3 2 72 -1 154 -8 81 -7 229
-13 328 -12 159 0 191 3 276 26 113 30 219 77 309 139 36 25 67 44 69 42 2 -2
-14 -24 -34 -49z m-32664 -340 c23 -9 57 -27 75 -40 35 -27 356 -464 349 -475
-9 -14 -776 -565 -786 -565 -11 0 -459 610 -459 624 1 11 580 426 628 448 56
27 130 30 193 8z m28091 -8 c48 -22 627 -437 628 -448 0 -14 -448 -624 -459
-624 -10 0 -777 551 -786 565 -7 11 314 448 350 475 75 58 186 71 267 32z
m-23378 -261 c83 -23 167 -58 234 -97 79 -47 267 -236 331 -334 134 -206 249
-484 330 -792 l29 -113 -31 0 c-18 0 -37 4 -43 8 -6 4 -21 43 -33 87 -117 435
-275 752 -475 951 -170 170 -333 234 -592 234 -281 0 -582 -89 -984 -290 -369
-185 -719 -414 -1715 -1125 -99 -70 -188 -130 -197 -132 -9 -3 -23 -1 -32 4
-12 7 9 26 97 89 750 538 1062 760 1167 829 550 363 1073 615 1405 679 44 8
89 17 100 20 48 12 351 -2 409 -18z m18986 -1 c330 -74 761 -276 1264 -592
171 -108 328 -217 836 -582 195 -140 406 -291 467 -335 88 -63 109 -82 97 -89
-9 -5 -23 -7 -32 -4 -9 2 -98 62 -197 132 -1038 741 -1363 952 -1760 1146
-381 186 -672 269 -942 269 -255 0 -420 -65 -589 -234 -200 -199 -358 -516
-475 -951 -12 -44 -27 -83 -33 -87 -6 -4 -25 -8 -43 -8 l-31 0 29 113 c81 309
198 589 331 792 62 95 211 252 288 305 100 68 215 116 335 139 76 15 366 6
455 -14z m-19050 -301 c215 -64 380 -252 525 -598 48 -116 135 -377 135 -407
0 -17 -8 -19 -74 -19 -174 0 -499 -48 -742 -110 -718 -183 -1441 -543 -2329
-1160 -156 -108 -203 -135 -266 -149 -53 -12 -67 -5 -113 59 -31 43 -35 56
-30 88 6 40 -13 101 -42 134 -9 9 -14 22 -12 28 2 6 73 62 158 124 222 160
255 218 254 436 0 92 -5 136 -28 224 -15 59 -24 112 -19 116 13 12 663 466
833 582 338 230 767 464 1030 560 138 51 297 93 405 107 92 13 247 5 315 -15z
m18900 16 c216 -26 448 -105 750 -256 232 -115 473 -257 700 -412 170 -116
820 -570 833 -582 5 -4 -4 -57 -19 -116 -24 -92 -28 -129 -28 -234 0 -105 4
-134 22 -181 37 -93 71 -129 235 -248 87 -62 157 -119 157 -126 0 -7 -7 -18
-14 -25 -26 -21 -49 -96 -42 -134 6 -30 1 -42 -30 -86 -46 -64 -59 -71 -113
-59 -64 14 -110 41 -281 159 -878 609 -1600 968 -2314 1150 -243 62 -568 110
-742 110 -66 0 -74 2 -74 19 0 30 87 291 135 407 118 281 265 477 415 553 127
65 240 81 410 61z m-24537 -172 c-59 -202 -162 -357 -369 -559 -183 -177 -388
-338 -684 -536 -576 -385 -1030 -594 -1473 -676 -90 -17 -90 -9 -2 17 265 79
652 280 1039 539 556 371 959 702 1346 1105 85 89 156 161 157 162 1 0 -5 -24
-14 -52z m1409 -5 c-19 -264 198 -744 515 -1138 42 -52 44 -57 17 -38 -56 40
-221 220 -292 320 -81 113 -172 264 -236 390 -72 144 -49 141 -227 21 -190
-128 -413 -290 -457 -332 -60 -56 -76 -99 -77 -203 0 -51 -1 -93 -2 -93 -7 0
-36 83 -58 165 -53 195 -42 333 33 395 47 39 775 568 783 569 3 1 3 -25 1 -56z
m5323 -103 c134 -202 262 -487 330 -734 19 -71 34 -131 32 -132 -1 -1 -34 7
-73 18 l-71 21 -38 136 c-73 259 -169 535 -269 771 l-36 85 31 -35 c17 -19 60
-78 94 -130z m16499 78 c-94 -218 -196 -508 -269 -769 l-38 -136 -71 -21 c-39
-11 -72 -19 -73 -18 -2 1 13 60 32 129 66 243 193 528 322 726 51 79 121 171
129 171 2 0 -13 -37 -32 -82z m5619 -194 c210 -153 395 -289 410 -303 64 -59
72 -203 22 -386 -22 -82 -51 -165 -58 -165 -1 0 -2 42 -2 93 -1 104 -17 147
-77 203 -44 42 -267 204 -457 332 -178 120 -155 123 -227 -21 -64 -126 -155
-277 -236 -390 -71 -100 -236 -280 -292 -320 -27 -19 -25 -14 17 38 317 394
534 874 515 1138 -2 31 -3 57 -1 57 2 0 175 -124 386 -276z m1062 153 c95 -64
273 -202 495 -384 384 -314 605 -478 1000 -742 389 -260 676 -419 955 -532 66
-27 113 -49 104 -49 -22 0 -248 63 -349 98 -343 118 -717 316 -1200 637 -545
362 -843 627 -1032 920 -80 123 -80 123 27 52z m-23235 -992 c695 -100 1243
-485 1640 -1150 134 -226 263 -512 354 -789 44 -133 119 -420 131 -501 3 -22
-14 37 -39 130 -183 701 -486 1260 -902 1665 -183 178 -352 298 -566 400 -302
144 -608 210 -971 210 -374 0 -735 -66 -1182 -215 -272 -90 -474 -174 -765
-316 -124 -61 -220 -106 -215 -101 6 6 91 53 190 106 639 339 1219 530 1750
575 144 13 442 5 575 -14z m17066 15 c442 -35 905 -165 1414 -397 174 -79 533
-263 555 -285 6 -6 -68 29 -164 77 -647 323 -1202 498 -1730 546 -165 14 -497
7 -635 -15 -385 -62 -754 -226 -1035 -460 -401 -335 -742 -882 -958 -1536 -47
-141 -122 -424 -124 -463 0 -12 -3 -17 -5 -10 -7 17 29 197 76 378 182 706
547 1322 1002 1693 437 356 996 520 1604 472z m-23240 -215 c30 -104 59 -172
145 -342 59 -117 102 -213 96 -213 -7 0 -41 14 -75 30 -121 57 -224 186 -267
334 -26 90 -18 223 19 301 33 71 29 77 82 -110z m28964 78 c28 -76 27 -206 -3
-294 -48 -140 -145 -255 -262 -311 -33 -15 -65 -28 -72 -28 -7 0 35 91 91 203
98 189 124 257 182 461 15 55 18 58 30 41 8 -10 23 -43 34 -72z m-22754 -166
c2 -1 27 -172 57 -380 l54 -378 -38 -20 -38 -19 -6 43 c-4 23 -30 206 -59 405
l-52 364 40 -7 c22 -3 41 -7 42 -8z m16477 -349 c-28 -200 -54 -382 -58 -405
l-6 -43 -38 19 -38 20 53 368 c29 202 53 373 54 380 0 11 23 19 65 22 20 1 19
-9 -32 -361z m-23145 130 c33 -114 63 -184 144 -347 57 -112 105 -208 106
-212 6 -16 -23 -9 -87 21 -175 83 -304 329 -272 521 10 64 47 159 61 159 3 0
25 -64 48 -142z m29860 97 c12 -25 27 -76 33 -114 32 -192 -97 -438 -274 -522
-63 -29 -91 -36 -85 -20 2 4 49 100 106 212 81 163 111 233 144 347 23 78 45
142 48 142 3 0 16 -20 28 -45z m-22701 -39 c120 -61 259 -153 356 -236 l64
-55 25 -173 c13 -95 22 -171 19 -169 -115 61 -266 105 -391 115 l-95 7 -13 65
c-78 396 -96 500 -85 500 6 0 60 -24 120 -54z m15556 -163 c-23 -120 -48 -247
-55 -283 l-13 -65 -95 -7 c-125 -10 -276 -54 -391 -115 -3 -2 6 74 19 169 l25
173 64 55 c97 83 236 175 356 236 60 30 114 54 120 54 8 0 -1 -68 -30 -217z
m-20123 -1 c0 -5 -93 -78 -207 -164 -115 -85 -297 -225 -407 -312 -109 -86
-200 -155 -203 -153 -9 10 223 210 427 368 133 103 368 269 381 269 5 0 9 -4
9 -8z m24746 -82 c138 -97 310 -228 439 -335 116 -96 237 -207 232 -212 -3 -2
-94 67 -203 153 -110 87 -292 227 -406 312 -115 86 -208 159 -208 164 0 17 22
5 146 -82z m-30417 40 c48 -24 106 -86 126 -132 19 -48 20 -137 1 -144 -8 -3
-49 15 -93 39 -125 72 -173 71 -295 -3 -37 -22 -72 -40 -78 -40 -38 0 -27 117
18 190 29 47 111 105 161 113 44 8 122 -3 160 -23z m36175 -8 c77 -42 126
-121 128 -208 1 -61 -14 -74 -55 -50 -121 72 -142 81 -199 80 -49 -1 -68 -7
-139 -48 -44 -26 -87 -45 -95 -42 -19 7 -18 96 1 144 19 43 77 107 120 129 74
40 160 38 239 -5z m-33545 -177 c33 -112 62 -182 146 -349 58 -115 103 -211
101 -213 -3 -3 -36 9 -75 27 -179 83 -306 307 -288 506 6 67 54 192 67 177 5
-4 26 -71 49 -148z m30798 -28 c18 -199 -103 -415 -284 -504 -40 -20 -76 -34
-79 -31 -3 4 37 89 89 190 92 177 139 292 172 418 9 33 21 73 27 88 10 27 11
27 39 -34 19 -39 32 -86 36 -127z m-22562 -94 c17 -20 36 -45 42 -54 7 -9 19
-63 28 -120 8 -57 17 -115 21 -129 4 -21 -2 -18 -45 25 l-50 50 -19 133 c-10
72 -16 132 -13 132 3 0 20 -17 36 -37z m14233 -95 l-19 -133 -50 -50 c-43 -43
-49 -46 -45 -25 4 14 13 72 21 129 9 57 21 111 28 120 29 41 72 91 78 91 3 0
-3 -60 -13 -132z m-22948 -20 c51 -179 98 -296 186 -465 70 -135 91 -183 79
-183 -40 0 -134 57 -195 119 -151 152 -201 370 -125 539 15 34 29 62 31 62 2
0 13 -33 24 -72z m31728 -129 c9 -147 -48 -291 -157 -400 -62 -62 -156 -119
-196 -119 -12 0 9 48 79 183 88 169 133 282 187 467 l22 75 30 -64 c23 -49 32
-83 35 -142z m-28502 89 c11 -13 37 -52 58 -87 31 -51 36 -65 25 -72 -32 -21
-63 -4 -122 66 l-58 70 26 22 c33 29 46 29 71 1z m25259 -1 l26 -22 -58 -70
c-59 -70 -90 -87 -122 -66 -11 7 -6 21 25 72 45 76 73 109 90 109 7 0 25 -10
39 -23z m-26320 -116 c-25 -22 -334 -266 -550 -432 -648 -500 -1618 -1201
-2140 -1548 -191 -127 -192 -126 -15 16 667 530 1696 1286 2479 1820 202 138
255 171 226 144z m27500 -120 c763 -517 1840 -1307 2515 -1844 177 -142 176
-143 -15 -16 -652 433 -1819 1288 -2530 1852 -224 178 -222 179 30 8z m-21390
93 c67 -17 266 -111 306 -146 26 -22 29 -37 104 -548 43 -289 80 -543 82 -566
l5 -41 -153 -6 c-85 -4 -175 -9 -200 -13 l-46 -6 -7 78 c-10 107 -42 321 -72
479 -23 119 -158 734 -171 779 -5 17 -1 18 43 12 27 -4 76 -14 109 -22z
m15241 9 c-13 -45 -147 -662 -170 -778 -30 -158 -62 -372 -72 -479 l-7 -78
-46 6 c-25 4 -115 9 -200 13 l-153 6 7 56 c3 31 41 288 83 571 l77 515 78 47
c99 59 203 102 292 121 98 21 118 21 111 0z m-23971 -140 c52 -186 93 -291
187 -471 111 -214 111 -208 -1 -155 -116 56 -233 211 -261 350 -19 88 -9 207
23 276 14 31 28 57 31 57 3 0 13 -26 21 -57z m32603 0 c25 -53 27 -68 26 -173
0 -96 -4 -125 -23 -173 -33 -85 -99 -175 -166 -230 -58 -47 -157 -93 -163 -77
-2 5 39 91 92 192 88 170 130 277 181 461 9 31 19 57 21 57 3 0 17 -26 32 -57z
m-24314 -534 c47 -316 92 -623 101 -682 9 -60 14 -115 11 -122 -3 -8 -18 -21
-35 -29 -36 -19 -26 -65 -96 414 -98 664 -135 918 -135 938 0 17 58 67 67 58
2 -1 41 -261 87 -577z m16124 532 c3 -7 -2 -63 -11 -125 -9 -61 -53 -356 -97
-656 -44 -300 -83 -557 -86 -573 l-6 -27 -30 17 c-17 10 -32 23 -35 30 -2 6 3
60 12 120 32 218 185 1256 185 1260 0 9 63 -33 68 -46z m-14808 -311 c112
-263 220 -607 296 -944 19 -83 34 -154 34 -157 0 -4 -21 -9 -47 -13 -45 -6
-49 -5 -83 32 -19 20 -51 51 -71 67 l-36 30 -82 555 c-79 538 -86 588 -77 579
2 -2 32 -69 66 -149z m13330 -421 c-45 -299 -83 -551 -86 -560 -2 -8 -24 -30
-48 -48 -24 -18 -54 -46 -66 -63 -20 -27 -24 -29 -68 -22 -26 4 -48 8 -50 9
-6 5 66 316 108 466 21 79 66 223 99 319 65 193 184 482 189 458 1 -8 -34
-259 -78 -559z m-13611 412 c31 -193 132 -883 129 -886 -2 -1 -18 0 -36 2 -22
4 -37 13 -42 27 -8 19 -150 963 -150 996 0 8 19 -4 44 -29 40 -39 46 -51 55
-110z m13931 -353 c-39 -266 -75 -493 -80 -504 -5 -14 -20 -23 -42 -27 -18 -2
-34 -3 -36 -2 -2 1 29 216 67 476 l71 473 42 43 c24 24 44 39 46 34 2 -5 -29
-227 -68 -493z m-23658 187 c19 -64 66 -170 130 -294 54 -106 97 -196 94 -198
-10 -11 -96 29 -148 67 -93 71 -160 168 -191 280 -35 126 -30 215 19 319 l27
56 19 -65 c10 -36 33 -110 50 -165z m33469 136 c16 -40 22 -79 22 -136 1 -147
-55 -276 -166 -383 -59 -56 -151 -112 -185 -112 -17 0 -23 -14 96 222 86 170
109 227 144 351 47 164 48 165 89 58z m-33972 -293 c39 -155 96 -301 186 -473
52 -101 95 -185 95 -188 0 -3 -13 -2 -28 2 -212 61 -378 344 -332 566 12 58
48 145 60 145 3 0 12 -24 19 -52z m34408 9 c86 -177 29 -417 -134 -569 -50
-46 -113 -84 -165 -99 -15 -4 -28 -5 -28 -2 0 3 43 87 95 188 90 172 147 318
186 473 7 28 16 52 19 52 3 0 15 -19 27 -43z m-24259 -707 c110 -12 263 -50
320 -79 l39 -20 18 -116 c9 -64 15 -118 13 -121 -6 -6 -68 16 -68 24 0 4 -5
38 -10 75 -19 128 -47 153 -187 163 l-88 6 27 -24 c36 -32 47 -57 54 -126 l6
-58 -88 8 c-103 10 -229 4 -362 -18 -52 -9 -97 -13 -100 -9 -13 12 -14 162 -3
184 7 12 26 28 44 36 l32 14 -45 -6 c-55 -7 -96 -29 -124 -66 -16 -22 -22 -48
-26 -119 l-5 -90 -78 -30 c-43 -16 -80 -28 -81 -26 -2 1 -6 23 -10 48 -11 76
44 154 160 227 31 20 -87 -22 -146 -52 -89 -45 -183 -111 -233 -163 -56 -61
-72 -110 -59 -192 8 -57 8 -60 -19 -86 l-27 -26 -8 68 c-11 93 -7 130 23 189
72 142 301 283 570 351 160 40 302 51 461 34z m14444 -16 c365 -69 674 -281
680 -467 2 -50 -11 -147 -20 -147 -3 0 -15 9 -27 20 -20 19 -21 26 -13 79 6
39 5 73 -2 99 -20 76 -139 182 -290 257 -59 30 -177 72 -146 52 116 -73 171
-151 160 -227 -4 -25 -8 -46 -9 -48 -1 -1 -39 12 -84 29 l-81 32 0 82 c0 69
-4 88 -23 115 -28 42 -69 66 -127 73 l-45 6 32 -14 c18 -8 37 -24 44 -36 11
-22 10 -172 -3 -184 -3 -4 -48 0 -100 9 -133 22 -259 28 -362 18 l-88 -8 6 58
c7 69 18 94 54 126 l27 24 -88 -6 c-140 -10 -168 -35 -187 -163 -5 -37 -10
-71 -10 -75 0 -8 -62 -30 -68 -23 -3 2 3 56 13 120 l17 116 39 20 c53 27 207
66 304 78 101 12 292 5 397 -15z m-13250 -232 c52 -23 46 -9 72 -177 8 -49 13
-91 13 -92 -1 -1 -14 1 -28 4 -25 5 -27 10 -37 89 -15 116 -21 124 -85 124
-29 0 -70 3 -92 7 l-40 6 32 -27 c33 -27 51 -68 54 -121 3 -69 9 -65 -110 -65
-128 0 -120 -8 -124 124 l-2 88 -38 -5 c-21 -3 -40 -7 -43 -9 -2 -3 1 -20 6
-39 6 -18 10 -64 10 -101 0 -66 0 -66 -31 -73 -17 -4 -33 -5 -35 -2 -7 7 -39
266 -33 271 12 12 191 24 319 22 121 -2 153 -6 192 -24z m12080 17 c57 -6 105
-13 107 -15 6 -5 -26 -264 -33 -271 -2 -3 -18 -2 -35 2 -31 7 -31 7 -31 73 0
37 4 83 10 101 5 19 8 36 6 39 -3 2 -22 6 -43 9 l-38 5 -2 -88 c-4 -132 4
-124 -124 -124 -119 0 -113 -4 -110 65 3 53 21 94 54 121 l32 27 -40 -6 c-22
-4 -63 -7 -92 -7 -64 0 -70 -8 -85 -124 -10 -79 -12 -84 -37 -89 -14 -3 -27
-5 -28 -4 -1 2 20 140 32 214 4 19 15 38 28 45 65 36 242 47 429 27z m-13162
-465 c5 -5 99 -571 210 -1259 272 -1693 394 -2427 435 -2631 109 -538 305
-976 601 -1343 242 -300 592 -559 994 -736 268 -118 677 -231 1005 -278 l90
-13 -5 -54 c-3 -30 -5 -124 -5 -207 0 -119 -3 -153 -13 -153 -38 0 -313 34
-417 51 -407 68 -803 226 -1281 510 -305 182 -493 353 -720 655 -152 202 -352
562 -492 885 -151 348 -258 765 -297 1155 -44 446 -61 593 -110 989 -113 902
-273 1991 -343 2333 l-19 92 21 5 c70 15 331 14 346 -1z m14191 1 c15 -5 14
-15 -3 -98 -70 -343 -228 -1414 -343 -2332 -49 -396 -65 -542 -110 -989 -29
-295 -96 -599 -191 -878 -134 -389 -387 -881 -598 -1162 -227 -302 -415 -473
-720 -655 -478 -284 -874 -442 -1281 -510 -104 -17 -379 -51 -417 -51 -10 0
-13 34 -13 153 0 83 -2 176 -5 206 l-5 55 115 17 c1435 218 2288 989 2569
2324 36 172 177 1018 441 2655 110 685 202 1250 205 1257 2 6 21 14 42 16 49
6 294 0 314 -8z m-13959 -91 c12 -14 86 -422 287 -1584 264 -1529 386 -2179
456 -2448 273 -1036 987 -1634 2200 -1842 94 -16 238 -36 320 -46 83 -9 152
-18 154 -20 11 -11 -16 -15 -115 -21 -67 -3 -115 -11 -124 -18 -12 -11 -42 -9
-165 10 -1073 168 -1788 630 -2165 1400 -145 297 -209 519 -304 1050 -85 472
-616 3534 -616 3550 0 14 3 14 28 1 15 -8 35 -22 44 -32z m13293 -876 c-382
-2210 -507 -2917 -531 -3026 -98 -438 -277 -827 -513 -1116 -400 -489 -1017
-808 -1821 -941 -85 -14 -167 -27 -182 -30 -15 -2 -31 2 -38 10 -9 10 -33 15
-79 15 -83 0 -171 11 -171 20 0 4 30 11 68 14 164 16 389 49 527 77 1200 240
1878 870 2119 1969 49 222 138 718 410 2283 160 921 280 1584 288 1594 19 24
73 54 76 44 2 -5 -67 -416 -153 -913z m-14135 -389 c482 -2775 479 -2757 535
-2973 369 -1441 1342 -2333 2887 -2645 135 -28 401 -70 539 -86 48 -5 58 -10
68 -32 10 -21 9 -29 -2 -41 -13 -12 -32 -12 -148 2 -1400 170 -2398 746 -2990
1724 -169 279 -323 648 -418 1003 -64 238 -61 225 -441 2409 -109 630 -219
1267 -245 1415 -25 149 -48 280 -50 292 -4 15 5 33 26 58 18 20 33 34 35 32 2
-2 94 -523 204 -1158z m15302 1124 c17 -22 26 -44 23 -57 -3 -12 -61 -349
-130 -751 -228 -1324 -516 -2968 -541 -3090 -286 -1379 -1080 -2307 -2350
-2748 -337 -117 -726 -205 -1123 -253 -116 -14 -135 -14 -148 -2 -11 12 -12
20 -2 41 10 22 20 27 68 32 1852 213 2989 1107 3415 2685 40 149 72 306 137
674 81 460 609 3495 609 3501 0 14 18 0 42 -32z m-13938 -125 c16 -123 154
-944 271 -1603 69 -390 162 -917 206 -1170 145 -836 209 -1197 254 -1437 25
-131 45 -243 45 -250 -1 -27 -115 162 -181 297 -137 283 -185 464 -303 1135
-329 1874 -516 2981 -507 2997 26 45 44 57 98 69 106 23 109 22 117 -38z
m12476 32 c22 -6 43 -22 58 -44 l23 -34 -171 -988 c-244 -1412 -366 -2114
-401 -2309 -62 -344 -135 -586 -248 -820 -65 -134 -180 -324 -181 -298 0 7 22
131 49 275 28 145 91 499 141 788 50 289 141 806 201 1150 194 1094 298 1697
347 2003 l47 299 50 -7 c28 -3 66 -10 85 -15z m-12070 -730 c92 -505 320
-1786 475 -2670 90 -512 165 -916 240 -1285 35 -170 62 -311 60 -313 -1 -2
-18 12 -37 30 -34 33 -34 33 -101 373 -37 187 -96 504 -132 705 -123 691 -618
3690 -614 3724 2 18 6 -1 109 -564z m11545 24 c-123 -771 -453 -2754 -530
-3184 -36 -201 -95 -518 -132 -705 -67 -340 -67 -340 -101 -373 -19 -18 -36
-32 -37 -30 -2 2 25 143 60 313 76 376 151 777 245 1315 270 1539 572 3212
578 3205 2 -1 -35 -245 -83 -541z m-7325 -3104 c550 -34 1014 -124 1223 -238
86 -46 87 -50 87 -248 l0 -174 -67 34 c-330 165 -1213 270 -1994 237 -677 -28
-1175 -110 -1431 -236 l-68 -33 0 173 c0 200 1 201 97 252 207 109 670 200
1188 232 192 12 775 12 965 1z m4235 -14 c588 -58 1031 -176 1094 -293 14 -28
16 -343 1 -343 -6 0 -32 11 -58 24 -330 166 -1251 274 -2027 237 -639 -30
-1090 -102 -1356 -217 -46 -19 -90 -38 -96 -41 -10 -4 -13 34 -13 169 l0 174
28 26 c137 129 634 235 1322 282 154 10 944 -3 1105 -18z m-4345 -536 c574
-27 1063 -111 1283 -221 60 -30 117 -74 117 -91 0 -15 -80 -9 -86 7 -9 24
-101 63 -224 95 -63 16 -121 30 -127 30 -9 0 -13 -21 -13 -70 l0 -70 -55 0
-55 0 0 85 c0 95 11 83 -98 105 -87 17 -82 22 -82 -90 l0 -100 -205 0 -205 0
0 124 0 123 -37 7 c-78 12 -73 20 -73 -124 l0 -130 -599 0 c-330 0 -606 -3
-615 -6 -14 -5 -16 9 -16 121 l0 128 -52 -7 c-29 -3 -68 -6 -85 -6 l-33 0 0
-143 0 -143 -32 -18 c-18 -10 -56 -36 -85 -57 -29 -22 -55 -39 -58 -39 -3 0
-5 84 -5 186 0 172 -1 185 -17 180 -10 -3 -47 -10 -83 -16 -219 -38 -470 -121
-522 -174 -13 -12 -14 -72 -10 -410 5 -426 8 -404 -45 -390 l-23 6 0 398 0
398 42 36 c24 21 83 52 142 75 400 156 1185 237 1956 201z m4271 -14 c495 -42
874 -121 1071 -223 112 -58 103 -18 106 -466 2 -361 1 -393 -15 -404 -9 -7
-27 -13 -40 -13 l-23 0 0 398 c0 450 8 408 -85 455 -73 36 -240 86 -395 117
l-135 27 -5 -188 -5 -189 -45 36 c-25 20 -64 47 -87 61 l-43 25 0 138 c0 77
-3 141 -7 143 -5 3 -43 8 -85 12 l-78 7 0 -127 c0 -127 0 -127 -22 -121 -13 3
-290 6 -615 6 l-593 0 0 130 c0 146 5 138 -82 124 l-38 -7 0 -123 0 -124 -205
0 -205 0 0 100 c0 112 4 108 -80 90 -100 -22 -90 -10 -90 -105 l0 -85 -60 0
-60 0 0 70 c0 49 -4 70 -12 70 -7 0 -65 -14 -128 -30 -123 -32 -215 -71 -224
-95 -6 -16 -86 -22 -86 -7 0 19 60 63 130 96 234 107 694 188 1240 216 225 12
786 4 1001 -14z m191 -624 c76 -31 160 -108 195 -180 l28 -57 3 -532 c2 -367
0 -533 -8 -533 -5 0 -32 12 -60 28 l-50 27 0 228 0 227 -302 0 c-284 0 -305 1
-335 20 -18 11 -33 24 -33 30 0 7 115 10 335 10 l335 0 0 115 0 115 -565 0
-565 0 -101 40 c-313 125 -647 218 -1009 280 l-165 29 1198 0 c783 1 1197 4
1197 11 0 16 -91 78 -139 95 -40 13 -349 15 -2773 15 -2652 0 -2729 -1 -2778
-19 -50 -19 -130 -75 -130 -92 0 -5 480 -9 1198 -10 l1197 0 -165 -29 c-362
-62 -696 -155 -1009 -280 l-101 -40 -590 0 -590 0 0 -115 0 -115 360 0 c237 0
360 -3 360 -10 0 -6 -15 -19 -32 -30 -31 -19 -52 -20 -360 -20 l-328 0 0 -231
c0 -236 -3 -259 -41 -279 -20 -11 -20 -9 -17 532 3 530 3 544 24 589 27 58 85
123 138 154 98 57 -87 54 2886 52 l2735 -2 57 -23z m-2382 -468 c1134 -116
2159 -677 2887 -1579 107 -132 293 -405 375 -550 114 -202 235 -464 262 -572
69 -267 9 -556 -129 -623 -54 -26 -81 -25 -142 6 -50 24 -86 58 -145 134 l-27
35 19 -75 c38 -145 99 -466 110 -580 6 -63 17 -133 23 -155 16 -53 78 -100
154 -115 170 -36 339 59 390 217 9 29 18 51 20 50 1 -2 7 -87 13 -189 11 -179
10 -188 -9 -226 -37 -72 -117 -149 -196 -188 -69 -34 -78 -36 -152 -32 -96 4
-170 36 -241 102 -27 25 -52 46 -56 46 -3 0 -6 -30 -6 -67 0 -163 -41 -459
-91 -667 -89 -366 -228 -684 -433 -996 -121 -184 -230 -316 -411 -495 -214
-214 -431 -380 -688 -529 -95 -54 -227 -124 -217 -113 3 2 67 46 143 97 396
263 702 571 962 965 298 453 467 911 542 1471 23 177 23 616 0 800 -148 1169
-845 2151 -1892 2664 -445 218 -876 326 -1390 346 -235 10 -580 -20 -795 -69
l-54 -12 -24 -83 c-13 -46 -22 -86 -19 -88 2 -2 55 7 118 20 607 131 1257 78
1838 -148 904 -353 1607 -1090 1910 -2004 77 -231 122 -436 152 -692 16 -138
16 -515 0 -660 -85 -771 -418 -1455 -972 -1995 -528 -515 -1175 -820 -1924
-906 -142 -17 -528 -17 -670 0 -398 46 -778 157 -1117 327 -669 336 -1227 925
-1525 1611 -429 987 -341 2110 236 3028 173 275 451 587 694 779 l77 61 -32 3
c-18 2 -80 1 -138 -3 l-104 -7 -134 -132 c-568 -556 -909 -1246 -1009 -2040
-23 -184 -23 -623 0 -800 63 -467 193 -870 407 -1251 270 -484 635 -877 1097
-1185 76 -51 140 -95 143 -97 11 -12 -164 80 -247 128 -121 71 -289 187 -403
278 -125 99 -361 331 -463 454 -427 515 -673 1138 -722 1829 l-7 98 -52 -47
c-28 -25 -85 -62 -126 -82 -69 -33 -82 -36 -165 -36 -80 0 -96 3 -145 29 -70
37 -134 89 -160 131 -17 27 -20 49 -20 146 1 846 256 1675 731 2379 154 229
295 397 523 626 320 319 590 524 961 728 l114 63 -49 70 c-28 39 -50 75 -50
79 0 5 30 -24 66 -64 l65 -72 57 29 c198 100 569 233 822 295 242 60 561 106
815 120 127 7 477 -4 625 -20z m-4835 -1494 c74 -184 147 -349 181 -407 30
-51 30 -55 2 -51 -18 2 -37 32 -94 145 -62 123 -205 456 -204 475 0 3 12 3 26
-1 24 -6 35 -26 89 -161z m8919 148 c-21 -66 -147 -360 -204 -473 -53 -106
-69 -131 -89 -133 -13 -2 -22 0 -19 5 2 4 29 60 60 124 58 118 183 411 194
454 5 20 34 42 57 44 5 1 5 -9 1 -21z m-8554 -157 c85 -16 196 -34 245 -41 50
-6 96 -13 102 -15 14 -5 -83 -167 -144 -243 l-35 -43 -96 3 -96 3 -23 40 c-22
39 -125 262 -144 312 -9 23 -8 25 13 19 13 -3 93 -19 178 -35z m8270 15 c-18
-49 -121 -273 -143 -311 l-23 -40 -96 -3 -96 -3 -35 43 c-60 75 -158 238 -144
242 6 3 77 14 157 25 80 12 195 32 255 45 145 31 136 30 125 2z m-10082 -61
c194 -30 377 -90 455 -149 50 -38 87 -90 87 -122 0 -22 -4 -24 -53 -24 -45 0
-54 3 -62 23 -23 52 -290 150 -467 172 l-58 7 0 -101 0 -102 -57 3 -58 3 -3
101 -3 102 -31 6 c-79 16 -77 18 -80 -101 l-3 -108 -290 0 -290 0 -3 63 c-2
34 -5 62 -7 62 -2 0 -30 -10 -62 -21 -74 -28 -162 -80 -163 -97 0 -9 -10 -12
-27 -10 -19 2 -29 10 -34 28 -30 119 278 246 691 284 90 8 418 -4 518 -19z
m12387 0 c197 -31 347 -79 444 -144 72 -48 93 -77 85 -119 -8 -41 -38 -43 -74
-5 -25 26 -140 85 -193 98 l-27 7 0 -66 0 -66 -290 0 -290 0 0 110 c0 123 4
118 -82 104 l-38 -7 0 -104 0 -104 -57 3 -58 3 -3 98 c-3 114 7 108 -142 77
-183 -39 -364 -113 -381 -157 -7 -20 -15 -23 -58 -23 -27 0 -53 5 -56 10 -12
20 16 79 54 113 96 87 336 160 611 187 119 12 436 3 555 -15z m-10575 -599 c0
-8 -3 -17 -7 -19 -5 -3 -332 -20 -728 -38 -483 -23 -699 -36 -655 -41 36 -3
345 -19 688 -34 546 -25 622 -30 620 -44 -4 -21 -34 -23 -725 -56 -331 -15
-601 -30 -599 -32 3 -3 1164 -62 1229 -62 15 0 27 -3 27 -7 -1 -31 -25 -34
-591 -63 -316 -16 -594 -30 -619 -31 -96 -3 3 -9 500 -34 612 -30 640 -32 640
-50 0 -8 -4 -16 -8 -19 -5 -3 -258 -19 -563 -36 -305 -17 -558 -32 -562 -33
-5 -1 234 -15 530 -31 296 -16 541 -32 546 -35 4 -4 1 -14 -5 -23 -11 -14 -81
-21 -488 -43 -261 -15 -483 -30 -493 -34 -11 -4 163 -17 385 -30 562 -31 548
-30 548 -53 0 -10 -6 -20 -12 -23 -7 -2 -219 -16 -470 -32 -251 -15 -456 -29
-454 -30 2 -2 181 -15 397 -28 482 -30 499 -32 499 -51 0 -8 -10 -18 -22 -23
-13 -5 -207 -21 -433 -36 -225 -15 -411 -28 -413 -30 -3 -3 52 -7 486 -36 339
-23 342 -24 342 -45 0 -26 25 -23 -454 -59 -181 -14 -331 -26 -332 -28 -2 -2
135 -13 304 -26 483 -35 452 -31 452 -52 0 -10 -3 -20 -7 -22 -5 -3 -160 -18
-345 -33 -186 -16 -334 -31 -330 -35 4 -3 138 -14 297 -23 319 -18 371 -24
358 -37 -5 -5 -582 -10 -1322 -11 -1112 -3 -1307 -1 -1279 11 58 23 176 50
254 57 60 6 72 9 58 17 -22 13 -314 16 -394 4 l-55 -8 42 25 c71 41 165 74
258 91 189 34 181 30 79 43 -111 15 -208 15 -293 2 -35 -6 -66 -9 -69 -6 -3 3
33 24 79 46 87 41 233 79 306 80 80 0 52 18 -49 30 -98 12 -263 9 -317 -6 -42
-12 -15 11 51 44 83 41 195 71 290 79 43 3 75 9 73 13 -16 26 -326 37 -415 15
-25 -6 -25 -6 -5 10 63 53 218 102 365 114 l85 7 -60 14 c-64 16 -313 21 -375
8 -33 -7 -34 -7 -15 8 69 56 219 103 360 113 l90 7 -50 12 c-67 18 -297 26
-363 14 -67 -12 -57 3 31 46 82 40 171 62 280 69 49 3 83 9 75 13 -55 29 -307
43 -398 22 l-45 -11 25 21 c66 55 204 97 350 107 l95 6 -85 19 c-91 20 -231
26 -318 13 -67 -10 -62 3 17 43 79 39 167 60 286 68 l100 7 -85 19 c-89 20
-250 27 -330 14 l-45 -8 30 25 c59 50 179 83 335 94 l95 7 -80 19 c-111 28
-285 26 -375 -3 -69 -23 -81 -22 -60 3 18 22 63 45 130 66 52 17 148 18 1583
18 1323 1 1527 -1 1527 -13z m11175 0 c56 -15 150 -60 160 -76 13 -22 -4 -21
-76 2 -97 30 -277 30 -384 0 l-70 -20 70 -1 c142 -3 299 -47 370 -105 19 -15
17 -16 -25 -8 -80 13 -241 6 -330 -14 l-85 -19 100 -7 c148 -10 269 -46 340
-102 19 -15 16 -16 -35 -9 -89 13 -232 7 -321 -13 l-84 -19 95 -6 c148 -10
288 -53 350 -108 14 -13 20 -20 14 -17 -6 3 -48 10 -95 15 -88 11 -207 3 -309
-20 l-55 -13 96 -7 c117 -9 204 -31 286 -71 88 -43 98 -58 31 -46 -66 12 -296
4 -363 -14 l-50 -12 90 -7 c141 -10 291 -57 360 -113 19 -15 18 -15 -15 -8
-62 13 -311 8 -375 -8 l-60 -14 85 -7 c147 -12 302 -61 365 -114 20 -16 20
-16 -5 -10 -89 22 -399 11 -415 -15 -2 -4 30 -10 73 -13 95 -8 207 -38 290
-79 71 -35 91 -54 46 -45 -72 16 -216 19 -312 7 -56 -7 -100 -16 -97 -20 2 -4
34 -10 70 -13 36 -4 96 -14 133 -23 68 -16 239 -90 230 -99 -2 -3 -42 0 -89 6
-82 11 -231 6 -314 -10 -47 -9 -47 -9 105 -36 99 -17 224 -60 275 -95 l30 -20
-75 7 c-138 14 -402 1 -355 -18 11 -4 36 -8 55 -8 46 -2 206 -35 248 -52 28
-12 -161 -14 -1279 -11 -1476 3 -1571 8 -1014 53 154 13 271 25 260 28 -11 2
-148 15 -305 30 -273 25 -285 27 -288 47 -4 27 -9 26 360 55 158 13 286 25
284 27 -2 2 -154 16 -337 32 -184 16 -335 29 -336 30 -2 0 -3 11 -3 25 0 19 5
25 23 25 12 0 166 11 342 25 176 14 331 25 344 25 13 0 22 2 20 4 -2 2 -173
17 -379 32 -229 17 -378 31 -382 38 -4 6 -8 18 -8 26 0 14 52 19 368 39 202
13 385 27 407 30 25 4 -101 16 -325 30 -480 31 -481 31 -491 58 -7 20 -4 22
39 27 26 3 224 15 439 28 216 12 390 25 385 28 -4 4 -185 17 -402 29 -491 28
-498 29 -511 53 -6 11 -9 21 -7 23 2 2 233 16 513 32 281 15 501 29 490 31
-11 1 -248 15 -526 31 -278 15 -511 31 -517 35 -7 4 -12 15 -12 25 0 16 38 19
458 40 552 27 670 34 657 37 -6 1 -262 14 -570 29 -308 14 -570 28 -581 31
-20 4 -40 31 -30 41 3 3 273 18 601 33 328 16 598 30 600 32 4 4 -1166 59
-1231 58 -23 0 -34 6 -42 25 l-12 25 58 1 c176 2 1261 56 1232 62 -19 3 -305
18 -635 32 -690 31 -718 33 -723 58 -3 16 74 17 1520 17 1240 0 1532 -3 1573
-14z m-14545 -904 l0 -728 -52 -37 -53 -37 -3 683 c-1 375 0 692 3 703 4 20
92 144 101 144 2 0 4 -328 4 -728z m14921 606 c18 -35 19 -70 19 -723 0 -377
-3 -685 -7 -685 -5 0 -28 16 -52 35 -24 19 -48 35 -52 35 -5 0 -9 330 -9 733
l1 732 40 -45 c23 -25 50 -62 60 -82z m-13691 -3228 l0 -1650 -204 0 -204 0
-6 98 c-3 53 -13 295 -21 537 -15 430 -21 531 -24 410 -1 -49 -40 -1034 -41
-1042 0 -2 -20 -3 -45 -3 l-45 0 0 1608 0 1609 24 11 c71 32 315 68 479 71
l87 1 0 -1650z m198 1640 l32 0 0 -1645 0 -1645 -60 0 -60 0 0 1643 c0 904 3
1647 7 1651 4 4 17 5 28 2 11 -3 35 -6 53 -6z m12052 -1640 l0 -1650 -60 0
-60 0 2 1643 3 1642 40 6 c22 3 48 7 58 8 16 1 17 -84 17 -1649z m501 1621
c62 -11 132 -26 154 -34 l40 -14 3 -1612 2 -1611 -45 0 c-25 0 -45 1 -45 3 -1
8 -40 993 -41 1042 -3 121 -9 20 -24 -410 -8 -242 -18 -484 -21 -537 l-6 -98
-199 0 -199 0 0 1652 0 1651 133 -6 c73 -4 185 -16 248 -26z m-11056 -281 c32
-260 48 -363 80 -517 116 -567 297 -1098 540 -1584 105 -208 208 -377 404
-664 l62 -90 -72 75 c-97 102 -249 292 -338 424 -382 562 -609 1197 -686 1916
-15 141 -33 670 -22 660 3 -3 17 -102 32 -220z m8971 -40 c33 -984 -355 -2028
-994 -2680 -123 -124 -129 -126 -42 -10 144 191 308 456 430 695 307 604 514
1359 572 2088 16 200 26 173 34 -93z m-9896 177 c36 -21 62 -46 77 -72 l21
-40 1 -1507 1 -1508 -85 0 -85 0 0 1580 c0 869 4 1580 8 1580 4 0 32 -15 62
-33z m10900 -1547 l0 -1580 -90 0 -90 0 0 1509 c0 1329 2 1510 15 1521 8 7 15
18 15 25 0 25 106 103 143 105 4 0 7 -711 7 -1580z m-12490 -10 l0 -1570 -30
0 -30 0 0 1509 c0 1035 -3 1512 -10 1516 -16 10 -1 46 33 83 17 17 32 32 34
32 2 0 3 -706 3 -1570z m14049 1535 c31 -36 40 -68 21 -80 -7 -4 -10 -520 -10
-1516 l0 -1509 -30 0 -30 0 0 1570 c0 919 4 1570 9 1570 5 0 23 -16 40 -35z
m-3109 -1297 c-86 -302 -287 -752 -454 -1016 -293 -462 -729 -905 -1201 -1219
-879 -585 -1932 -808 -2975 -628 -1116 193 -2102 834 -2703 1756 -90 138 -296
498 -274 479 3 -3 56 -77 117 -165 310 -443 632 -789 987 -1058 693 -525 1549
-827 2418 -854 l180 -5 -45 24 c-25 12 -51 35 -59 49 -13 24 -13 30 2 53 39
59 185 107 387 125 490 46 937 157 1265 315 72 34 203 109 293 165 282 177
342 192 342 84 0 -55 -31 -136 -72 -186 -20 -26 -26 -38 -15 -34 30 12 250
158 363 242 494 367 995 969 1259 1510 68 140 205 459 205 477 0 6 3 9 6 6 3
-4 -9 -57 -26 -120z m-1304 -1512 c42 -42 47 -97 12 -141 -60 -76 -168 -59
-198 31 -25 74 28 144 107 144 38 0 50 -5 79 -34z m-5660 -576 c20 -28 43 -54
52 -60 11 -6 -73 -9 -250 -10 l-266 0 -17 -96 c-14 -77 -17 -130 -12 -267 8
-235 41 -390 173 -804 l55 -173 3393 0 3394 0 45 138 c60 181 86 302 152 700
31 183 62 365 70 403 8 39 15 77 15 85 0 12 -61 14 -412 14 -270 1 -407 4
-396 10 9 6 32 32 52 60 l36 50 1983 0 c1381 0 2001 -3 2043 -11 65 -12 174
-59 195 -86 13 -15 12 -16 -6 -9 -114 46 -311 54 -440 19 l-70 -20 105 -6 c58
-3 131 -13 163 -21 66 -18 162 -62 179 -83 9 -11 4 -12 -33 -6 -77 14 -239 8
-329 -13 l-85 -19 100 -7 c56 -3 129 -14 165 -23 106 -27 249 -109 160 -91
-111 22 -228 17 -370 -16 l-55 -12 95 -7 c149 -10 288 -53 350 -108 14 -13 20
-20 14 -17 -6 3 -49 10 -97 16 -89 11 -200 3 -307 -22 l-55 -12 96 -7 c53 -4
125 -15 160 -24 71 -19 180 -67 198 -89 10 -12 6 -13 -31 -4 -55 12 -307 3
-373 -13 l-50 -13 90 -7 c111 -8 198 -30 288 -71 80 -37 108 -62 56 -50 -60
13 -310 8 -374 -8 l-60 -14 85 -7 c147 -12 302 -61 365 -114 20 -16 20 -16 -5
-10 -90 22 -420 11 -420 -15 0 -4 35 -10 78 -13 95 -8 206 -38 290 -79 66 -33
93 -56 51 -44 -54 15 -219 18 -317 6 -56 -7 -100 -16 -97 -20 2 -4 34 -10 70
-13 36 -4 96 -14 133 -23 69 -17 239 -90 230 -99 -3 -3 -40 0 -84 6 -77 11
-233 6 -319 -10 -47 -9 -32 -16 58 -26 32 -4 90 -16 130 -26 72 -20 223 -87
214 -95 -2 -2 -49 1 -105 7 -72 8 -130 8 -208 0 -59 -6 -114 -11 -122 -11 -35
0 0 -11 79 -25 98 -17 200 -50 281 -91 l57 -29 -7210 0 -7211 0 78 37 c87 40
211 75 307 85 56 6 59 7 32 15 -48 14 -324 21 -385 10 -30 -6 -57 -9 -59 -7
-1 2 29 20 68 39 87 44 222 84 312 92 38 4 69 10 69 14 0 4 -53 13 -117 20
-92 10 -140 10 -217 1 -55 -6 -101 -9 -104 -7 -7 7 97 57 172 82 38 13 108 29
155 35 47 6 93 14 101 17 54 19 -293 36 -388 19 -57 -10 -47 3 30 41 83 41
195 71 290 79 43 3 75 9 73 13 -16 26 -326 37 -415 15 -25 -6 -25 -6 -5 10 63
53 218 102 365 114 l85 7 -60 14 c-64 16 -314 21 -374 8 -52 -12 -24 13 56 50
90 41 177 63 288 71 l90 7 -50 13 c-66 16 -318 25 -373 13 -107 -25 51 63 167
93 35 9 107 20 160 24 l96 7 -55 12 c-104 24 -217 33 -305 23 -47 -6 -91 -13
-98 -16 -7 -4 -1 3 13 16 62 55 201 98 350 108 l95 7 -55 12 c-143 33 -258 38
-371 15 -30 -6 -32 -4 -22 9 23 27 151 79 231 94 42 7 109 14 147 15 l70 1
-75 20 c-80 20 -260 29 -340 16 l-45 -8 30 25 c60 50 178 83 330 94 l100 7
-80 19 c-111 28 -285 26 -375 -3 -35 -12 -66 -20 -68 -17 -12 11 139 82 202
95 23 4 938 8 2034 9 l1992 1 36 -50z m-4395 -1618 c-6 -2 -29 -19 -53 -37
l-43 -34 -3 690 c-2 767 -7 707 67 799 l36 44 3 -729 c1 -452 -1 -731 -7 -733z
m14894 1393 c25 -33 47 -73 50 -90 3 -16 4 -333 3 -702 l-3 -673 -57 42 -58
43 0 723 c0 472 3 723 10 720 5 -1 30 -30 55 -63z m-13655 -2675 l0 -1020
-295 0 -295 0 2 982 3 982 45 13 c126 37 291 59 448 62 l92 1 0 -1020z m198
1010 l32 0 0 -1015 0 -1015 -60 0 -60 0 0 1013 c0 558 3 1017 7 1021 4 4 17 5
28 2 11 -3 35 -6 53 -6z m12052 -1010 l0 -1020 -60 0 -60 0 2 1013 3 1012 35
6 c19 4 45 7 58 8 l22 1 0 -1020z m501 991 c62 -11 132 -26 154 -34 l40 -14 3
-982 2 -981 -290 0 -290 0 0 1022 0 1021 133 -6 c73 -4 185 -16 248 -26z
m-11993 -135 c95 -48 87 25 90 -760 1 -380 3 -787 5 -904 l2 -212 -77 0 -78 0
0 950 c0 523 2 950 5 950 3 0 27 -11 53 -24z m10912 -926 l0 -950 -90 0 -90 0
0 879 c0 769 2 880 15 891 8 7 15 18 15 25 0 25 106 103 143 105 4 0 7 -427 7
-950z m-12490 -10 l0 -940 -30 0 -30 0 0 879 c0 599 -3 882 -10 886 -16 10 -1
46 33 83 17 17 32 32 34 32 2 0 3 -423 3 -940z m14054 906 l36 -33 0 -290 c0
-159 -3 -567 -7 -906 l-6 -617 -39 0 -38 0 0 940 c0 572 4 940 9 940 5 0 26
-15 45 -34z"/>
<path d="M6595 30329 c-94 -13 -282 -55 -380 -86 -210 -65 -601 -236 -855
-373 -214 -115 -444 -250 -437 -256 7 -7 242 51 371 93 175 56 380 139 711
286 373 165 577 228 835 258 122 14 325 6 415 -15 33 -8 61 -13 63 -12 7 8
-130 60 -216 83 -81 21 -125 26 -267 28 -93 2 -201 -1 -240 -6z"/>
<path d="M37979 30325 c-94 -18 -223 -59 -269 -86 -19 -11 -26 -17 -15 -14 49
15 218 35 302 35 196 0 475 -56 693 -138 58 -22 227 -94 375 -160 300 -132
502 -212 675 -266 115 -36 331 -88 337 -82 11 10 -414 248 -636 357 -377 184
-664 288 -951 344 -118 24 -411 29 -511 10z"/>
<path d="M8170 26801 c-40 -21 -80 -89 -80 -135 0 -80 70 -146 154 -146 68 0
111 27 137 86 59 133 -82 264 -211 195z"/>
<path d="M36684 26801 c-74 -45 -99 -119 -65 -195 50 -114 213 -118 272 -6 25
46 24 88 -4 140 -39 74 -134 103 -203 61z"/>
<path d="M20990 17551 l0 -151 33 0 c17 0 42 -3 55 -6 l22 -6 0 151 0 151 -39
0 c-22 0 -46 3 -55 6 -14 5 -16 -11 -16 -145z"/>
<path d="M19675 17673 c-92 -8 -85 5 -85 -160 l0 -146 46 7 c26 3 64 6 85 6
l39 0 0 150 c0 169 11 151 -85 143z"/>
<path d="M21510 17495 c0 -80 1 -145 3 -145 1 0 40 -7 87 -15 47 -8 86 -15 88
-15 1 0 2 65 2 145 0 80 -2 145 -4 145 -2 0 -40 7 -83 15 -43 8 -81 15 -85 15
-5 0 -8 -65 -8 -145z"/>
<path d="M19240 17604 c-201 -42 -369 -95 -432 -137 l-33 -23 -3 -126 -3 -126
103 33 c113 37 279 75 436 102 l102 18 0 142 0 143 -27 -1 c-16 0 -80 -12
-143 -25z"/>
<path d="M21802 17439 l3 -143 127 -32 c70 -17 145 -39 168 -48 22 -9 43 -16
46 -16 2 0 3 57 2 127 l-3 128 -50 27 c-48 27 -195 78 -263 93 l-33 7 3 -143z"/>
<path d="M23948 17693 l-48 -4 0 -151 0 -150 23 6 c12 3 39 6 60 6 l37 0 0
150 c0 114 -3 150 -12 148 -7 -1 -34 -3 -60 -5z"/>
<path d="M25250 17531 l0 -151 33 0 c17 0 56 -3 85 -6 l52 -7 0 146 0 145 -27
6 c-16 2 -54 8 -85 11 l-58 6 0 -150z"/>
<path d="M23445 17633 c-11 -2 -44 -9 -72 -14 l-53 -10 0 -145 c0 -134 1 -145
18 -141 9 3 35 8 57 11 22 4 52 9 68 12 l27 6 0 144 c0 151 1 147 -45 137z"/>
<path d="M25600 17486 l0 -143 78 -12 c177 -28 450 -96 545 -136 16 -7 17 3
17 118 l0 126 -30 21 c-64 45 -247 103 -474 150 -150 31 -136 44 -136 -124z"/>
<path d="M23049 17537 c-70 -24 -143 -55 -163 -70 l-36 -28 0 -125 0 -124 49
25 c47 23 154 54 251 72 l45 9 3 142 c2 110 0 142 -10 142 -7 0 -70 -20 -139
-43z"/>
<path d="M21155 15774 c-157 -90 -258 -175 -319 -272 l-26 -42 161 -184 160
-184 72 29 c105 44 328 118 432 144 l90 23 36 61 c48 81 49 82 33 14 -7 -31
-12 -58 -11 -59 1 -2 70 8 152 21 458 71 941 55 1360 -45 885 -211 1659 -759
2159 -1528 223 -344 403 -754 492 -1124 15 -65 29 -116 31 -114 2 1 -6 68 -18
147 -34 242 -129 575 -229 812 -57 133 -66 339 -18 435 34 69 89 97 188 96 94
0 123 -14 218 -108 l73 -71 -20 48 c-48 112 -153 268 -224 334 -75 69 -117 86
-233 91 -168 8 -323 -42 -356 -113 -6 -14 -14 -25 -17 -25 -3 0 -19 19 -36 42
-45 64 -189 233 -270 318 -78 81 -125 164 -132 234 -5 38 -1 47 28 81 43 49
120 85 182 85 56 0 143 -27 240 -77 66 -33 70 -34 55 -12 -22 35 -206 198
-341 302 -219 170 -496 348 -638 411 l-56 24 53 -54 c71 -73 124 -181 131
-268 l6 -66 -39 -39 c-39 -39 -92 -61 -147 -61 -16 0 -81 30 -155 72 -351 199
-796 353 -1167 404 -113 16 -173 34 -112 34 15 0 45 7 67 16 30 12 40 22 40
39 0 31 -35 52 -128 77 -107 29 -383 32 -454 5 -77 -30 -72 -63 16 -102 l49
-22 -164 -6 c-260 -10 -574 -56 -814 -122 -108 -29 -364 -121 -457 -163 -36
-17 -69 -28 -72 -25 -3 4 -6 29 -6 57 1 140 77 309 199 439 19 20 31 37 26 37
-6 0 -46 -21 -90 -46z"/>
<path d="M20510 15529 c-278 -161 -588 -388 -827 -608 -155 -142 -477 -501
-413 -460 14 9 58 38 98 64 41 26 116 67 168 92 236 112 317 43 237 -202 -26
-81 -126 -272 -200 -385 -221 -333 -372 -676 -471 -1065 -35 -138 -88 -442
-79 -451 2 -2 16 49 31 114 93 387 273 792 512 1152 133 201 246 342 417 517
l139 142 -104 3 -103 3 134 24 135 24 87 72 c173 144 457 331 656 433 51 26
92 51 90 55 -4 14 -232 316 -238 317 -9 0 -30 -98 -36 -172 l-6 -68 -76 -47
c-102 -63 -219 -143 -319 -221 -82 -63 -83 -64 -108 -47 -76 49 -71 225 11
370 45 81 145 195 246 282 46 39 98 83 114 97 48 41 18 30 -95 -35z"/>
<path d="M21555 15145 c-117 -34 -337 -113 -349 -125 -6 -6 8 -30 39 -67 27
-32 50 -60 52 -62 1 -2 68 18 147 45 l145 49 37 80 c20 44 38 86 41 93 7 17
-20 14 -112 -13z"/>
<path d="M22330 15028 c-198 -8 -462 -47 -609 -90 -41 -12 -46 -17 -62 -66
l-18 -52 68 6 c38 4 90 2 119 -5 36 -7 66 -8 97 -1 266 60 674 70 984 24 760
-111 1457 -505 1925 -1088 229 -286 419 -635 520 -954 34 -109 98 -362 94
-374 -2 -5 -21 43 -42 107 -21 64 -39 115 -40 113 -2 -2 0 -37 5 -78 44 -442
35 -1575 -17 -1997 -4 -34 -3 -53 4 -53 12 0 92 186 139 324 116 344 165 650
165 1026 1 243 -14 396 -57 617 -168 860 -705 1629 -1460 2088 -546 332 -1146
482 -1815 453z"/>
<path d="M20945 14901 c-200 -105 -384 -221 -525 -332 -57 -45 -61 -51 -35
-46 17 3 91 13 165 23 l135 17 120 72 c66 40 180 102 253 139 l132 66 -52 65
c-28 36 -54 65 -57 65 -3 0 -64 -31 -136 -69z"/>
<path d="M21139 14729 c-121 -59 -251 -130 -245 -136 2 -3 58 1 123 8 100 10
124 16 158 39 22 15 56 35 75 45 19 10 37 19 39 21 7 6 -41 64 -53 64 -7 0
-50 -18 -97 -41z"/>
<path d="M22657 14665 c-75 -12 -140 -25 -143 -28 -3 -3 -1 -133 5 -289 6
-156 11 -299 11 -319 l0 -36 98 -6 c54 -3 144 -13 201 -22 56 -9 105 -15 107
-12 4 3 11 174 26 637 l3 85 -30 6 c-53 12 -137 7 -278 -16z"/>
<path d="M22985 14538 c3 -73 10 -238 14 -366 5 -128 10 -234 12 -237 3 -2 59
-20 124 -40 66 -20 153 -50 194 -66 41 -16 76 -27 79 -24 3 2 8 112 13 242 4
131 11 300 14 375 l7 136 -94 30 c-100 32 -311 82 -348 82 -22 0 -22 -1 -15
-132z"/>
<path d="M22255 14609 c-115 -15 -212 -28 -214 -28 -4 -1 5 -313 15 -502 l6
-116 46 9 c25 4 115 12 200 18 85 5 156 11 158 12 3 3 24 531 24 599 0 25 -4
38 -12 38 -7 -1 -107 -14 -223 -30z"/>
<path d="M21931 14573 c-33 -3 -58 -16 -105 -51 -34 -26 -79 -58 -101 -71 -22
-14 -41 -25 -43 -27 -2 -1 57 -78 130 -171 73 -93 145 -184 159 -203 l26 -35
7 245 c4 135 9 262 12 283 6 41 14 38 -85 30z"/>
<path d="M23454 14523 c3 -16 11 -193 17 -394 l12 -365 71 -39 c78 -41 243
-150 291 -190 26 -22 14 -19 -80 21 -105 44 -261 104 -271 104 -2 0 -4 -83 -4
-184 0 -135 3 -186 13 -194 6 -5 52 -26 100 -46 49 -20 128 -56 177 -81 l88
-44 6 207 c10 334 26 767 32 907 l7 130 -129 62 c-127 61 -303 133 -324 133
-7 0 -9 -11 -6 -27z"/>
<path d="M20781 14469 l-105 -9 -93 -71 c-556 -424 -966 -1034 -1143 -1704
-72 -271 -104 -524 -103 -825 1 -385 63 -738 191 -1084 l29 -79 41 75 42 75
-10 79 c-32 283 -39 1227 -11 1529 6 61 12 133 15 160 4 40 -5 22 -44 -95 -27
-80 -49 -140 -49 -135 -2 25 81 331 119 445 120 355 301 685 513 935 112 132
337 351 465 453 103 82 337 242 353 242 5 0 9 5 9 10 0 11 -68 11 -219 -1z"/>
<path d="M21494 14346 c-26 -12 -37 -31 -89 -157 -71 -172 -216 -469 -222
-452 -6 16 58 270 107 426 22 71 40 130 40 131 0 1 -54 1 -121 1 l-121 0 6
-105 c4 -58 11 -217 16 -354 6 -137 12 -251 13 -253 2 -2 47 26 100 61 52 35
140 86 195 113 l99 48 7 200 c3 110 9 235 12 278 3 42 2 77 -2 77 -5 -1 -23
-7 -40 -14z"/>
<path d="M21574 14163 c9 -274 14 -326 32 -319 27 10 239 75 281 86 l42 11
-112 132 c-61 73 -140 167 -175 210 -35 42 -66 77 -69 77 -3 0 -2 -89 1 -197z"/>
<path d="M23930 14328 c0 -7 7 -166 15 -353 7 -187 17 -471 21 -632 l7 -292
97 -65 c54 -35 135 -95 180 -131 45 -36 84 -65 86 -63 2 3 8 161 14 354 8 295
23 679 33 854 l2 44 -117 86 c-106 77 -316 210 -332 210 -3 0 -6 -6 -6 -12z"/>
<path d="M20912 14256 c-214 -135 -304 -208 -297 -240 2 -12 9 -131 16 -266 6
-135 12 -246 13 -247 1 -1 23 3 50 9 87 18 166 -25 166 -91 -1 -66 -80 -175
-167 -228 l-45 -28 6 -125 c3 -69 6 -153 6 -188 l0 -63 57 47 c32 25 115 84
185 131 l128 85 0 92 c0 128 18 701 30 950 5 115 9 211 7 212 -1 1 -13 5 -27
8 -19 5 -48 -8 -128 -58z"/>
<path d="M20494 13941 c-93 -83 -175 -169 -303 -318 l-53 -62 11 -153 c15
-208 29 -511 37 -824 l6 -262 61 72 c33 39 114 124 179 189 l118 119 6 212 7
213 -54 -10 c-99 -18 -168 32 -154 113 9 56 85 154 157 202 l56 38 6 103 c10
166 23 452 21 454 -1 2 -46 -37 -101 -86z"/>
<path d="M24404 13973 c10 -84 26 -465 37 -882 l10 -404 96 -101 c53 -56 133
-145 177 -200 l81 -99 7 209 c14 419 29 782 39 922 l11 143 -26 33 c-86 113
-385 410 -427 424 -6 3 -8 -14 -5 -45z"/>
<path d="M22273 13821 c-56 -3 -104 -9 -108 -13 -3 -3 48 -83 115 -177 110
-154 125 -171 151 -171 l29 0 0 185 0 185 -42 -2 c-24 -1 -89 -4 -145 -7z"/>
<path d="M22540 13653 c0 -93 4 -173 8 -179 4 -6 73 -16 157 -22 83 -7 166
-15 186 -18 l36 -6 6 178 c3 99 2 182 -1 185 -10 10 -223 29 -315 29 l-77 0 0
-167z"/>
<path d="M21885 13778 c-110 -20 -280 -60 -288 -67 -4 -4 -4 -95 -1 -203 l7
-195 91 27 c50 15 134 37 187 50 l96 22 6 111 c4 62 7 147 7 190 l0 77 -27 -1
c-16 -1 -50 -5 -78 -11z"/>
<path d="M22068 13609 c2 -96 5 -175 6 -177 4 -3 229 17 264 24 25 5 25 5
-205 253 l-68 74 3 -174z"/>
<path d="M23013 13675 c4 -60 7 -142 7 -184 l0 -76 168 -42 c92 -23 177 -45
188 -48 21 -7 22 -4 29 147 4 84 5 169 3 188 l-3 35 -145 36 c-80 20 -169 40
-199 44 l-54 7 6 -107z"/>
<path d="M21330 13631 c-91 -31 -176 -63 -188 -70 l-24 -13 7 -216 c4 -120 9
-218 10 -220 2 -2 52 21 111 51 60 29 141 66 179 82 39 16 73 31 77 34 11 10
14 411 3 410 -5 0 -84 -26 -175 -58z"/>
<path d="M20033 13418 c-138 -194 -222 -338 -310 -538 l-55 -125 16 -165 c43
-437 48 -1181 10 -1595 l-6 -70 63 85 c35 47 122 146 194 220 l130 135 -3 373
-3 372 -31 -22 c-33 -23 -31 -15 9 39 23 32 23 35 33 415 9 362 22 671 36 891
4 53 5 97 2 97 -3 0 -41 -51 -85 -112z"/>
<path d="M24885 13430 c3 -58 10 -179 15 -270 5 -91 14 -364 20 -608 l10 -443
40 -59 c50 -74 51 -84 2 -37 l-39 38 -7 -493 c-8 -628 -34 -1282 -55 -1403 -7
-42 -24 147 -38 433 -7 154 4 134 -163 313 l-99 106 9 149 c5 82 10 191 10
242 0 50 3 92 6 92 8 0 76 -53 152 -118 l62 -54 0 419 0 419 -32 31 c-48 46
-310 253 -320 253 -4 0 -8 -321 -8 -712 0 -803 -19 -1587 -46 -1971 l-7 -89
-54 -35 c-29 -20 -55 -34 -57 -32 -2 2 -25 54 -51 114 -26 61 -80 172 -121
248 l-75 137 15 168 c22 237 35 415 42 582 3 80 8 151 10 159 5 14 98 -98 187
-226 28 -40 51 -72 51 -70 1 1 0 111 -2 244 l-4 241 -109 78 -109 79 0 207 c0
152 3 208 12 208 6 0 53 -22 105 -50 l93 -50 0 198 c0 108 3 301 7 428 l6 231
-74 50 c-75 51 -275 173 -282 173 -3 0 -7 -498 -10 -1107 -3 -610 -10 -1236
-16 -1393 -22 -633 -33 -845 -45 -857 -25 -27 -420 -182 -432 -170 -3 3 5 90
19 194 54 398 107 956 107 1127 0 38 4 56 9 50 27 -26 148 -357 259 -704 9
-27 10 22 6 210 l-5 245 -53 80 c-30 44 -88 127 -130 185 l-77 105 6 60 c3 33
10 206 16 385 6 178 12 326 13 327 1 2 48 -40 104 -93 l102 -96 0 109 0 109
-105 54 -105 55 0 172 0 173 98 -35 c53 -19 100 -35 105 -35 4 0 7 206 7 459
l0 458 -87 41 c-86 40 -163 72 -233 97 l-35 12 -1 -1081 c0 -594 -6 -1286 -12
-1536 -15 -587 -32 -1077 -38 -1116 l-4 -31 -148 -36 c-174 -42 -302 -67 -302
-58 0 3 11 85 24 181 89 643 141 1424 154 2346 l7 451 98 -22 c54 -12 100 -19
102 -15 2 3 5 220 6 481 l2 474 -59 18 c-71 22 -266 67 -290 67 -16 0 -16 -37
-12 -542 6 -604 -6 -1964 -22 -2563 -11 -433 -29 -877 -34 -883 -9 -9 -252
-31 -344 -32 -101 0 -102 0 -97 23 9 40 44 328 65 527 43 424 73 880 90 1385
6 176 12 333 13 348 2 24 10 31 59 51 31 13 77 35 102 50 l46 27 0 80 c0 44
-3 79 -7 77 -5 -2 -46 -23 -92 -46 -47 -23 -91 -42 -98 -42 -9 0 -13 17 -13
59 l0 59 70 47 c38 26 86 66 105 89 l35 43 0 260 c0 247 -1 261 -20 278 -20
18 -20 17 -20 -61 0 -90 -18 -172 -54 -242 -25 -49 -100 -141 -109 -132 -9 11
-16 740 -6 740 19 0 114 -52 167 -91 l52 -40 0 275 0 274 -27 6 c-21 4 -276
24 -333 26 -3 0 -3 -408 -1 -907 4 -1093 -13 -2264 -45 -3017 l-7 -159 -136 7
c-116 6 -312 24 -318 30 -1 1 7 60 17 131 73 503 127 1181 149 1883 5 156 12
286 14 289 3 2 26 -3 51 -11 25 -9 71 -20 101 -24 l55 -9 0 81 0 82 -68 12
c-37 6 -84 18 -105 27 l-37 15 0 70 0 69 63 -29 c34 -16 81 -32 105 -36 l42
-7 0 122 0 121 -27 6 c-48 12 -117 51 -149 86 l-32 33 -7 326 -7 326 52 22
c29 12 78 28 109 34 31 6 59 16 63 22 4 5 8 98 8 206 l0 196 -57 -4 c-32 -2
-115 -8 -185 -14 l-127 -11 6 -707 c9 -1067 -31 -3268 -60 -3297 -7 -8 -174
24 -341 64 l-108 26 6 45 c3 25 17 127 30 226 65 471 116 1122 132 1705 7 243
7 245 33 279 l26 35 -25 -17 -25 -16 3 317 c2 174 5 322 7 328 2 6 32 15 67
18 l64 7 12 79 c6 44 22 108 36 142 25 62 25 66 27 403 l2 340 -24 -3 c-38 -5
-240 -51 -289 -66 l-45 -13 -2 -934 c-2 -1134 -18 -2011 -49 -2720 l-7 -146
-71 22 c-79 25 -305 114 -356 140 -28 15 -31 20 -26 46 35 176 103 747 127
1064 l12 160 60 105 c33 58 91 155 129 216 l68 112 -7 81 -8 81 -107 -95 -106
-94 5 472 c3 260 9 476 13 480 4 5 49 19 100 32 50 13 93 25 95 27 1 1 6 209
10 460 l8 458 -84 -31 c-46 -17 -127 -49 -180 -70 l-96 -40 -6 -1132 c-3 -623
-11 -1260 -16 -1417 -18 -518 -34 -885 -38 -889 -9 -11 -323 166 -323 183 0
25 120 316 228 552 l51 111 -6 277 c-3 152 -9 275 -13 274 -11 -4 -140 -148
-213 -236 -33 -40 -61 -71 -63 -69 -2 2 1 41 6 88 25 224 55 779 63 1149 l2
105 75 32 c41 18 87 37 103 42 l27 10 0 431 0 432 -67 -37 c-38 -20 -117 -66
-178 -102 l-110 -65 -1 -786 c-1 -870 -24 -1808 -51 -2052 l-7 -65 -7 59 c-4
33 -10 130 -13 215 -4 86 -9 187 -12 225 l-6 69 -44 -69 c-24 -38 -71 -122
-105 -186 -33 -65 -64 -118 -70 -118 -5 0 -94 85 -198 188 l-188 188 51 -84
c87 -143 224 -311 381 -467 470 -471 1052 -751 1750 -841 159 -21 525 -24 670
-6 538 68 948 215 1355 487 249 167 467 364 631 571 117 148 153 192 237 284
39 44 72 86 72 93 0 7 -33 71 -73 141 l-73 128 17 106 c9 59 25 178 35 265 10
86 21 157 24 157 20 0 175 -238 236 -363 l46 -92 -6 75 c-22 252 -27 380 -33
780 -6 460 5 850 32 1133 l14 149 -30 76 c-39 98 -133 286 -189 377 -56 92
-173 262 -205 300 l-26 30 6 -105z m-286 -3150 c61 -120 141 -303 141 -324 0
-20 -297 -266 -323 -266 -2 0 5 46 15 103 16 91 65 423 84 566 8 66 10 64 83
-79z"/>
<path d="M18750 13513 c-30 -11 -73 -59 -101 -114 -87 -173 -239 -745 -239
-903 0 -30 7 -74 16 -96 13 -33 21 -40 43 -40 43 0 69 38 112 161 129 364 242
889 210 972 -11 28 -15 30 -41 20z"/>
<path d="M20454 12421 c-50 -36 -130 -97 -177 -135 l-87 -69 0 -476 c0 -464
-10 -860 -30 -1246 -6 -104 -12 -230 -15 -280 l-4 -90 14 55 c74 279 146 810
170 1256 l7 120 94 60 c52 32 101 64 109 69 13 9 15 65 13 406 l-3 397 -91
-67z"/>
<path d="M21825 11915 c15 -95 83 -252 125 -290 18 -16 18 -14 13 62 -5 69
-10 83 -39 118 -17 22 -49 65 -69 95 l-36 55 6 -40z"/>
<path d="M16423 13853 c-25 -5 -21 4 -88 -243 -20 -74 -52 -170 -71 -212 -104
-231 -131 -382 -109 -604 8 -77 15 -172 15 -211 l0 -73 335 0 c282 0 335 2
335 14 0 8 -14 56 -31 108 -34 104 -76 186 -156 302 -77 110 -93 148 -93 227
0 88 25 167 110 341 62 127 107 243 124 319 5 23 2 27 -25 33 -34 7 -310 6
-346 -1z"/>
<path d="M16047 13623 c5 -204 -5 -419 -23 -482 -3 -9 9 11 27 44 62 116 156
442 175 608 l7 57 -96 0 -96 0 6 -227z"/>
<path d="M28334 13815 c-3 -20 -4 -147 -1 -283 6 -310 14 -339 141 -555 86
-147 105 -221 71 -286 -29 -56 -128 -119 -265 -167 l-65 -23 399 0 399 -1 -6
58 c-8 87 -39 156 -134 298 -103 155 -158 265 -178 359 -31 141 -30 447 1 604
l7 31 -181 0 -181 0 -7 -35z"/>
<path d="M28875 13838 c-16 -47 -27 -156 -32 -298 -6 -173 6 -280 43 -400 l18
-55 12 110 c25 210 83 442 150 594 13 29 24 55 24 57 0 2 -47 4 -105 4 -76 0
-107 -4 -110 -12z"/>
<path d="M16280 8390 c0 -107 139 -943 206 -1242 l16 -68 289 0 289 0 -6 63
c-15 175 -38 279 -109 497 -108 334 -157 587 -141 728 l6 52 -275 0 -275 0 0
-30z"/>
<path d="M16964 8308 c12 -199 58 -474 78 -462 4 3 8 28 8 56 0 63 23 224 56
385 13 67 24 125 24 128 0 3 -39 5 -87 5 l-86 0 7 -112z"/>
<path d="M17407 8213 c-5 -194 -4 -212 19 -299 38 -153 56 -313 63 -579 l6
-250 131 -3 131 -3 7 32 c3 17 11 94 17 171 11 154 3 341 -31 679 -10 106 -22
254 -26 327 l-7 132 -152 0 -152 0 -6 -207z"/>
<path d="M17843 8405 c13 -33 128 -511 156 -645 42 -207 70 -405 78 -552 l6
-128 483 0 483 0 -30 87 c-17 47 -82 206 -144 352 -184 434 -234 590 -258 799
l-11 102 -384 0 c-333 0 -383 -2 -379 -15z"/>
<path d="M26377 8278 c-9 -79 -26 -260 -37 -403 -31 -393 -57 -597 -95 -743
l-13 -53 111 3 111 3 14 80 c7 44 42 235 77 425 83 445 135 760 135 817 0 10
-31 13 -144 13 l-143 0 -16 -142z"/>
<path d="M27481 8318 c56 -330 61 -667 15 -1118 l-12 -120 291 0 292 0 6 288
c6 296 17 487 46 845 l17 207 -337 0 -336 0 18 -102z"/>
<path d="M28340 8408 c0 -7 7 -62 15 -123 10 -75 17 -241 20 -525 3 -228 8
-475 11 -547 l6 -133 73 0 73 0 5 383 c4 354 7 399 35 607 17 124 33 253 37
288 l6 62 -141 0 c-105 0 -140 -3 -140 -12z"/>
<path d="M27250 8003 c-39 -281 -119 -562 -236 -825 l-43 -98 164 0 163 0 7
137 c9 165 0 466 -21 698 -9 94 -17 171 -19 173 -1 2 -8 -37 -15 -85z"/>
</g>
</svg>
